<svg xmlns="http://www.w3.org/2000/svg" width="30" height="30" viewBox="0 0 30 30"><g><g><g><path fill="#0a1455" d="M17.935 7.753a1.362 1.362 0 0 0-1.92 0l-6.707 6.729a1.356 1.356 0 0 0-.042 1.87l6.609 6.63a1.358 1.358 0 0 0 1.92.007 1.356 1.356 0 0 0 0-1.919l-5.611-5.695 5.758-5.702a1.356 1.356 0 0 0-.007-1.92z"/></g><g><path fill="#0a1455" d="M23.497 24.122a12.269 12.269 0 0 1-8.747 3.628 12.269 12.269 0 0 1-8.747-3.628 12.269 12.269 0 0 1-3.628-8.747c0-3.305 1.287-6.412 3.628-8.747A12.269 12.269 0 0 1 14.75 3c3.305 0 6.412 1.287 8.747 3.628a12.269 12.269 0 0 1 3.628 8.747c0 3.305-1.287 6.412-3.628 8.747zM14.75.75C6.671.75.125 7.296.125 15.375S6.671 30 14.75 30s14.625-6.546 14.625-14.625S22.829.75 14.75.75z"/></g></g></g></svg>