<svg xmlns="http://www.w3.org/2000/svg" width="30" height="30" viewBox="0 0 30 30"><g><g><path fill="#fff" d="M19.143 20.17l-3.706-3.706-3.705 3.706a1.124 1.124 0 1 1-1.59-1.59l3.706-3.705-3.705-3.705a1.124 1.124 0 0 1 0-1.59 1.129 1.129 0 0 1 1.589 0l3.705 3.706 3.706-3.706a1.129 1.129 0 0 1 1.589 0 1.129 1.129 0 0 1 0 1.59l-3.705 3.705 3.705 3.705a1.129 1.129 0 0 1 0 1.59 1.116 1.116 0 0 1-1.589 0zM15.437.25C7.36.25.813 6.796.813 14.875S7.359 29.5 15.437 29.5c8.08 0 14.626-6.546 14.626-14.625S23.515.25 15.438.25z"/></g></g></svg>